<?xml version="1.0" encoding="UTF-8" standalone="no" ?>
<!DOCTYPE svg PUBLIC "-//W3C//DTD SVG 1.1//EN" "http://www.w3.org/Graphics/SVG/1.1/DTD/svg11.dtd">
<svg xmlns="http://www.w3.org/2000/svg" xmlns:xlink="http://www.w3.org/1999/xlink" version="1.1" width="1080" height="1080" viewBox="0 0 1080 1080" xml:space="preserve">
<desc>Created with Fabric.js 5.2.4</desc>
<defs>
</defs>
<rect x="0" y="0" width="100%" height="100%" fill="transparent"></rect>
<g transform="matrix(1 0 0 1 540 540)" id="525125fd-1d47-4dbd-a385-785d0385043c"  >
<rect style="stroke: none; stroke-width: 1; stroke-dasharray: none; stroke-linecap: butt; stroke-dashoffset: 0; stroke-linejoin: miter; stroke-miterlimit: 4; fill: rgb(255,255,255); fill-rule: nonzero; opacity: 1; visibility: hidden;" vector-effect="non-scaling-stroke"  x="-540" y="-540" rx="0" ry="0" width="1080" height="1080" />
</g>
<g transform="matrix(1 0 0 1 540 540)" id="f4fca0d8-05e7-4e91-b856-a163c47ab732"  >
</g>
<g transform="matrix(52.91 0 0 52.91 521.57 544.62)" id="e791e478-c17e-49c9-b235-2d2315e98bf5"  >
<path style="stroke: rgb(255,255,255); stroke-width: 0; stroke-dasharray: none; stroke-linecap: butt; stroke-dashoffset: 0; stroke-linejoin: miter; stroke-miterlimit: 4; fill: rgb(255,255,255); fill-rule: nonzero; opacity: 1;" vector-effect="non-scaling-stroke"  transform=" translate(-7.5, -7.5)" d="M 4.5 4.5 L 4.90534 4.20725 C 4.77836 4.03144 4.55252 3.95753 4.34617 4.02425 C 4.13981 4.09098 4 4.28313 4 4.5 L 4.5 4.5 Z M 7.5 14 C 3.91015 14 1 11.0899 1 7.5 L 0 7.5 C 0 11.6421 3.35786 15 7.5 15 L 7.5 14 Z M 14 7.5 C 14 11.0899 11.0899 14 7.5 14 L 7.5 15 C 11.6421 15 15 11.6421 15 7.5 L 14 7.5 Z M 7.5 1 C 11.0899 1 14 3.91015 14 7.5 L 15 7.5 C 15 3.35786 11.6421 0 7.5 0 L 7.5 1 Z M 7.5 0 C 3.35786 0 0 3.35786 0 7.5 L 1 7.5 C 1 3.91015 3.91015 1 7.5 1 L 7.5 0 Z M 5 12 L 5 4.5 L 4 4.5 L 4 12 L 5 12 Z M 4.09466 4.79275 L 10.5947 13.7927 L 11.4053 13.2073 L 4.90534 4.20725 L 4.09466 4.79275 Z M 10 4 L 10 10 L 11 10 L 11 4 L 10 4 Z" stroke-linecap="round" />
</g>
</svg>